{"title":"The Way (2010)DivX Pal HQ AC3 DD5.1 (Nl subs Extern) TBS","uid":6396723,"size":2076752216,"categoryP":"video","categoryS":"movies","magnet":"?xt=urn:btih:2ca568049452035364f79fafd4a690a6f6f6e6fd&amp;dn=The+Way+%282010%29DivX+Pal+HQ+AC3+DD5.1+%28Nl+subs+Extern%29+TBS&amp;tr=udp%3A%2F%2Ftracker.openbittorrent.com%3A80&amp;tr=udp%3A%2F%2Fopen.demonii.com%3A1337&amp;tr=udp%3A%2F%2Ftracker.coppersurfer.tk%3A6969&amp;tr=udp%3A%2F%2Fexodus.desync.com%3A6969","seeders":1,"leechers":0,"uploader":"Vlinder.","files":-1,"time":1305545234,"description":"The Way (2010) Pal HQ AC3 DD5.1 (Externe Subs) TBS\n\n\n\nVerenigde Staten\nDrama\n128 minuten\n\ngeregisseerd door Emilio Estevez\nmet Martin Sheen, Emilio Estevez en Deborah Kara Unger\n\nTom Avery, een oogarts uit CaliforniÃƒÂ«, krijgt op een dag een oproep vanuit Frankrijk dat zijn zoon Daniel bij een storm in de PyreneeÃƒÂ«n is overleden. Hoewel \nde relatie tussen vader en zoon niet echt goed was, besluit Tom toch naar Frankrijk te reizen waar hij ontdekt dat zijn zoon Daniel was begonnen met de pelgrimsroute naar Santiago de Compostela. Nu zijn zoon dood is besluit Tom zelf de pelgrimsroute te lopen uit respect voor zijn overleden zoon.\n\nStoryline\n\nTom Avery, an ophthalmologist from California, to one day get a call from France that his son Daniel in a storm in the Pyrenees is deceased. Although the relationship between father and son was not very good, but Tom decides to travel to France where he discovers that his son Daniel had started the pilgrimage route to Santiago de Compostela. Now his son is dead Tom himself decided the pilgrimage route to walk out of respect for his deceased son.\n\nAn American father travels to France to recover the body of his estranged son who died while traveling &quot;El camino de Santiago&quot; from France to Santiago de Compostela (Spain). \n\n\n\nINFO\n\nSOURCE..........: The Way 2010 DVDRip XVID AC3-5.1 HQ Hive-CM8\nSIZE............: 1.93GB\nFORM............: AVI\nVIDEO CODEC.....: XVID\nBITRATE.........: 2251 Kbit/s\nWIDTH &amp; HEIGHT..: 720 X 400\nFRAMES/S........: 25.000 Fps\nAUDIO...........: English\nAUDIO CODE......: AC3\nBITRATE.........: 448kbps\nCHANNELS........: 5\nSAMPLING........: 48.0 kHz\nSubtitles.......: Dutch srt (lossles)\nCover...........: Yes meegepost.\nVertaling subs..: SRT\nCategory........: Video\nFormat..........: DivX\nSource..........: Retail\nSubtitle........: Dutch subs extern\nGenre...........: Drama\nLanguage........: English audio\n\nGeneral\nComplete name                    : The.Way.2010.DVDRip.XVID.AC3.HQ.Hive-CM8.avi\nFormat                           : AVI\nFormat/Info                      : Audio Video Interleave\nFile size                        : 1.93 GiB\nDuration                         : 2h 2mn\nOverall bit rate                 : 2 251 Kbps\nWriting application              : Nandub v1.0rc2\nWriting library                  : Nandub build 1853/release\n\nVideo\nID                               : 0\nFormat                           : MPEG-4 Visual\nFormat profile                   : Advanced Simple@L5\nFormat settings, BVOP            : Yes\nFormat settings, QPel            : Yes\nFormat settings, GMC             : No warppoints\nFormat settings, Matrix          : Default (H.263)\nMuxing mode                      : Packed bitstream\nCodec ID                         : XVID\nCodec ID/Hint                    : XviD\nDuration                         : 2h 2mn\nBit rate                         : 1 794 Kbps\nWidth                            : 720 pixels\nHeight                           : 400 pixels\nDisplay aspect ratio             : 16:9\nFrame rate                       : 25.000 fps\nColor space                      : YUV\nChroma subsampling               : 4:2:0\nBit depth                        : 8 bits\nScan type                        : Progressive\nBits/(Pixel*Frame)               : 0.249\nStream size                      : 1.54 GiB (80%)\nWriting library                  : XviD 1.2.1 (UTC 2008-12-04)\n\nAudio\nID                               : 1\nFormat                           : AC-3\nFormat/Info                      : Audio Coding 3\nMode extension                   : CM (complete main)\nCodec ID                         : 2000\nDuration                         : 2h 2mn\nBit rate mode                    : Constant\nBit rate                         : 448 Kbps\nChannel(s)                       : 6 channels\nChannel positions                : Front: L C R, Side: L R, LFE\nSampling rate                    : 48.0 KHz\nBit depth                        : 16 bits\nStream size                      : 394 MiB (20%)\nAlignment                        : Split accross interleaves\nInterleave, duration             : 40 ms (1.00 video frame)\nInterleave, preload duration     : 500 ms   \n  &lt;a href=&quot;\nhttp://www.moviemeter.nl/film/39531&quot; rel=&quot;nofollow&quot; target=&quot;_NEW&quot;&gt;\nhttp://www.moviemeter.nl/film/39531&lt;/a&gt; &lt;a href=&quot;\nhttp://www.imdb.com/title/tt1441912&quot; rel=&quot;nofollow&quot; target=&quot;_NEW&quot;&gt;\nhttp://www.imdb.com/title/tt1441912&lt;/a&gt;","torrent":{"xt":"urn:btih:2ca568049452035364f79fafd4a690a6f6f6e6fd","amp;dn":"The+Way+%282010%29DivX+Pal+HQ+AC3+DD5.1+%28Nl+subs+Extern%29+TBS","amp;tr":["udp%3A%2F%2Ftracker.openbittorrent.com%3A80","udp%3A%2F%2Fopen.demonii.com%3A1337","udp%3A%2F%2Ftracker.coppersurfer.tk%3A6969","udp%3A%2F%2Fexodus.desync.com%3A6969"],"infoHash":"2ca568049452035364f79fafd4a690a6f6f6e6fd","infoHashBuffer":{"type":"Buffer","data":[44,165,104,4,148,82,3,83,100,247,159,175,212,166,144,166,246,246,230,253]},"announce":[],"urlList":[]}}